PathFileType	4	(X/Y/Z)	C:\Users\Basilio\Documents\Thesis Gigler\squatting_fais\c3dfiles\041\SLS_pre_front4\markers_experimental.trc
DataRate	CameraRate	NumFrames	NumMarkers	Units	OrigDataRate	OrigDataStartFrame	OrigNumFrames
200.000000	200.000000	4	63	mm	200.000000	1035	1381
Frame#	Time	FHD			LBHD			RBHD			C7			T10			CLAV			LSHO			LUUPA			LMUPA			LDUPA			LLEP			LMEP			LRAD			LUL			LRFIN			RSHO			RUPA1			RMUPA			RDUPA			RLEP			RMEP			RRAD			RUL			RUFIN			LASI			RASI			USACR			RSACR			LTHI1			LTHI2			LTHI3			LTHI4			LLFC			LMFC			LTIB1			LTIB2			LTIB3			LTIB4			LLMAL			LMMAL			LHEE			LMT1			LMT2			LMT5			RTHI			RTHI2			RTHI3			RTHI4			RLFC			RMFC			RTIB1			RTIB2			RTIB3			RTIB4			RLMAL			RMMAL			RHEE			RMT1			RMT2			RMT5			LSACR			*61			*62			
		X1	Y1	Z1	X2	Y2	Z2	X3	Y3	Z3	X4	Y4	Z4	X5	Y5	Z5	X6	Y6	Z6	X7	Y7	Z7	X8	Y8	Z8	X9	Y9	Z9	X10	Y10	Z10	X11	Y11	Z11	X12	Y12	Z12	X13	Y13	Z13	X14	Y14	Z14	X15	Y15	Z15	X16	Y16	Z16	X17	Y17	Z17	X18	Y18	Z18	X19	Y19	Z19	X20	Y20	Z20	X21	Y21	Z21	X22	Y22	Z22	X23	Y23	Z23	X24	Y24	Z24	X25	Y25	Z25	X26	Y26	Z26	X27	Y27	Z27	X28	Y28	Z28	X29	Y29	Z29	X30	Y30	Z30	X31	Y31	Z31	X32	Y32	Z32	X33	Y33	Z33	X34	Y34	Z34	X35	Y35	Z35	X36	Y36	Z36	X37	Y37	Z37	X38	Y38	Z38	X39	Y39	Z39	X40	Y40	Z40	X41	Y41	Z41	X42	Y42	Z42	X43	Y43	Z43	X44	Y44	Z44	X45	Y45	Z45	X46	Y46	Z46	X47	Y47	Z47	X48	Y48	Z48	X49	Y49	Z49	X50	Y50	Z50	X51	Y51	Z51	X52	Y52	Z52	X53	Y53	Z53	X54	Y54	Z54	X55	Y55	Z55	X56	Y56	Z56	X57	Y57	Z57	X58	Y58	Z58	X59	Y59	Z59	X60	Y60	Z60	X61	Y61	Z61	X62	Y62	Z62	X63	Y63	Z63	

1036	5.175	-221.3741455078126	1793.280517578125	-1128.115356445313	-388.2025146484376	1701.228515625	-1199.951538085938	-365.7791442871094	1706.543090820313	-1048.343872070313	-406.2538452148439	1565.63720703125	-1123.375122070313	-428.0604248046876	1248.8056640625	-1074.37939453125	-245.7242431640626	1504.756958007813	-1141.46728515625	-362.4848632812501	1542.87109375	-1304.626098632813	-463.7571411132814	1356.119873046875	-1341.590576171875	-436.6761474609376	1315.95361328125	-1334.744262695313	-493.776580810547	1293.267578125	-1335.434814453125	-510.4458007812501	1249.930297851563	-1322.148803710938	-502.4675903320314	1233.78076171875	-1236.613891601563	-522.4662475585939	974.066589355469	-1271.038818359375	-581.1232910156251	996.8767700195315	-1313.729248046875	-547.7956542968751	899.9769287109377	-1270.615600585938	-300.4965820312501	1573.016967773438	-964.7735595703127	-419.6167602539064	1408.35986328125	-850.7813110351565	-376.5367126464844	1383.065063476563	-840.9044189453127	-417.192596435547	1342.26025390625	-825.1209716796877	-424.5378417968751	1300.23486328125	-814.7412109375002	-450.7256469726564	1272.2802734375	-895.8264160156252	-438.249237060547	1031.240478515625	-808.8444824218752	-484.2955932617189	1058.185791015625	-752.5863647460939	-470.5715332031251	954.2798461914065	-801.8071289062502	-271.5740661621094	1050.45068359375	-1181.792724609375	-251.231918334961	1068.029663085938	-958.527770996094	-437.0523376464845	1135.031127929688	-1058.623168945313	-449.2732849121095	1109.90966796875	-1026.918090820313	-382.7441101074219	837.949890136719	-1217.37109375	-341.8503112792969	763.8732910156251	-1211.4833984375	-294.5013122558594	771.084655761719	-1208.1787109375	-365.7171020507813	711.0832519531251	-1193.93896484375	-334.0548706054688	533.5313110351564	-1165.2109375	-318.5576477050782	525.3311157226564	-1046.34521484375	-304.7397155761719	346.6261291503907	-1093.943481445313	-356.8782653808594	299.7430419921876	-1150.036499023438	-317.5135498046876	296.9609985351563	-1125.441040039063	-321.3590698242188	223.1499786376954	-1085.330200195313	-384.269989013672	128.4023742675782	-1111.677612304688	-343.8999328613282	139.6847534179688	-1032.918212890625	-447.897430419922	116.2393188476563	-1064.614868164063	-241.162094116211	65.92831420898439	-1042.960083007813	-235.6753387451172	57.80511856079103	-1087.905639648438	-285.0222778320313	40.23967361450196	-1139.037719726563	-307.7994079589844	807.6987304687502	-851.1926269531252	-259.3517761230469	762.3566894531251	-854.374694824219	-229.5112609863282	769.1213378906252	-865.9868774414065	-272.8557434082032	678.8977050781251	-857.0736083984377	-255.9470214843751	562.8904418945314	-848.9613037109377	-254.0826568603516	529.8265991210939	-964.2010498046877	-252.2466888427735	394.3879699707032	-834.7302856445315	-345.5597229003907	339.3018188476563	-801.0977172851565	-300.5083618164063	326.6049194335938	-806.078552246094	-290.1141662597657	272.1017456054688	-826.5867919921877	-364.1849060058594	169.3384857177735	-789.718200683594	-341.6221008300782	169.4857635498047	-873.2718505859377	-434.1332092285157	136.3916473388672	-829.520935058594	-227.8262634277344	82.29258728027345	-857.3902587890627	-215.4152984619141	94.35500335693361	-807.5801391601565	-256.6651000976563	86.85943603515626	-755.2559814453126	-454.811981201172	1106.780029296875	-1081.403686523438	-4216.936523437501	853.129089355469	-3944.743164062501	nan	nan	nan	
1037	5.18	-221.1798248291016	1793.218139648438	-1127.345947265625	-388.1487426757814	1701.346801757813	-1199.52734375	-365.7770996093751	1706.637329101563	-1047.865112304688	-406.3065185546876	1565.658203125	-1123.067138671875	-428.1500549316407	1248.83544921875	-1074.255737304688	-245.6156005859376	1504.911865234375	-1141.232788085938	-361.7248535156251	1542.948364257813	-1304.232299804688	-462.9198608398439	1356.14599609375	-1341.800659179688	-435.7871398925782	1316.044921875	-1334.889038085938	-493.0992126464845	1293.332153320313	-1335.87841796875	-509.4069824218751	1249.800170898438	-1322.949584960938	-501.6602783203126	1233.378540039063	-1237.417236328125	-520.3103027343751	973.5156860351565	-1272.513916015625	-578.9727783203126	996.4530029296877	-1315.4873046875	-545.0399169921876	899.3896484375002	-1273.117919921875	-300.5254821777344	1573.04638671875	-964.3996582031252	-419.6274414062501	1408.530395507813	-850.5546875000002	-376.5821228027344	1383.20556640625	-840.593444824219	-417.4522705078126	1342.384643554688	-824.747741699219	-424.6849670410157	1300.470825195313	-814.2701416015627	-450.9152832031251	1272.322143554688	-895.3940429687502	-437.9559936523439	1031.455322265625	-808.0310058593752	-484.3284912109376	1058.391723632813	-751.9434814453126	-470.498504638672	954.2734375000002	-801.5075683593752	-271.2292175292969	1050.333984375	-1181.648681640625	-251.3885345458985	1067.954345703125	-958.361022949219	-437.1319274902345	1135.002197265625	-1058.535766601563	-449.2925720214845	1109.836181640625	-1026.960693359375	-382.8093872070313	838.092468261719	-1217.383666992188	-341.9482421875001	763.9315185546876	-1211.526000976563	-294.5926818847657	771.0740966796877	-1208.135620117188	-365.8718566894532	711.1708984375001	-1193.99853515625	-334.3780517578126	533.5441284179689	-1165.237548828125	-318.9417419433594	525.3260498046876	-1046.32275390625	-305.0354003906251	346.5327758789063	-1093.925415039063	-356.9193725585938	299.7164306640626	-1150.020751953125	-317.6114501953126	296.8869934082032	-1125.305419921875	-321.4035644531251	223.1899719238282	-1085.365966796875	-384.2928161621095	128.3658752441407	-1111.6728515625	-343.9471740722657	139.6939086914063	-1032.95166015625	-447.5900268554689	115.9292602539063	-1064.823486328125	-241.1912689208985	65.96624755859376	-1042.96435546875	-235.7811431884766	57.76983642578126	-1087.88720703125	-285.0380554199219	40.24489974975587	-1139.0322265625	-308.4939575195313	807.5374145507815	-851.125671386719	-260.2202453613282	762.0336914062501	-853.6967773437502	-230.3348999023438	768.6779785156252	-865.7760009765627	-273.9619750976563	678.7328491210939	-856.7796630859377	-257.0287475585938	562.6759643554689	-848.5435180664065	-254.7767486572266	529.4673461914064	-963.9356689453127	-253.3873443603516	394.1465759277345	-834.209167480469	-346.7256469726563	339.2760314941407	-800.3554687500002	-301.6063537597657	326.6425170898438	-805.456237792969	-291.0260009765626	271.8479309082032	-826.1542968750002	-365.1176757812501	169.3082275390625	-789.1155395507815	-342.6686401367188	169.3339385986328	-872.5921020507815	-434.8337402343751	136.2111053466797	-828.993347167969	-228.9583740234376	82.36765289306642	-857.1536254882815	-216.3920593261719	93.84634399414064	-806.9838867187502	-257.8687438964844	86.62869262695314	-754.3721923828126	-454.8698120117189	1106.7490234375	-1081.416137695313	-4217.356933593751	853.2602539062502	-3944.767578125001	nan	nan	nan	
1038	5.185	-221.0953521728516	1793.117065429688	-1126.6826171875	-388.0007324218751	1701.382568359375	-1199.054565429688	-365.6786193847657	1706.654541015625	-1047.434204101563	-406.3495178222657	1565.659301757813	-1122.651611328125	-428.2171020507814	1248.815063476563	-1074.02978515625	-245.5361328125001	1504.991333007813	-1140.537841796875	-361.6422424316407	1543.1962890625	-1303.867309570313	-462.0438842773439	1356.167602539063	-1342.067260742188	-434.754608154297	1316.070922851563	-1335.265747070313	-491.8642883300782	1293.161254882813	-1336.586669921875	-508.4266967773439	1249.625854492188	-1323.763549804688	-500.9366455078126	1232.981689453125	-1238.154541015625	-518.0898437500001	973.303894042969	-1274.718627929688	-576.5327758789064	995.8334960937502	-1317.332641601563	-541.7144165039064	898.820739746094	-1276.449096679688	-300.5111999511719	1573.071899414063	-964.064147949219	-419.7071533203126	1408.596557617188	-850.089782714844	-376.5171203613282	1383.353759765625	-840.1182250976565	-417.3902587890626	1342.476928710938	-824.2868652343752	-424.7670898437501	1300.671997070313	-813.8045654296877	-450.8486633300782	1272.41015625	-894.8261718750002	-437.4254150390626	1031.59619140625	-807.109313964844	-484.2130737304689	1058.533935546875	-751.2034301757814	-470.0020141601564	954.3931274414065	-800.3974609375002	-271.1970214843751	1050.386962890625	-1181.52587890625	-251.5175323486329	1067.880004882813	-958.1000976562502	-437.2590942382814	1134.959350585938	-1058.496826171875	-449.4299316406251	1109.748901367188	-1026.902709960938	-382.7533874511719	838.1694946289065	-1217.454711914063	-342.0277404785157	763.9830322265626	-1211.478393554688	-294.2335205078126	770.9654541015627	-1207.398193359375	-365.9362182617188	711.3161621093751	-1194.089111328125	-334.6141662597657	533.5437622070314	-1165.277954101563	-319.2641601562501	525.3471679687501	-1046.316162109375	-305.2922363281251	346.4630432128907	-1093.89892578125	-357.0812683105469	299.7071533203126	-1150.07568359375	-317.8811340332032	296.8995971679688	-1125.280639648438	-321.5223999023438	223.1972198486329	-1085.333984375	-384.3156738281251	128.3589782714844	-1111.708374023438	-343.9550476074219	139.693115234375	-1032.974853515625	-447.5913085937501	115.9286804199219	-1064.8251953125	-241.2126617431641	65.99600982666017	-1043.005737304688	-235.7666015625001	57.7475929260254	-1087.925415039063	-285.0065307617188	40.21617126464844	-1139.080078125	-309.3969116210938	807.394226074219	-851.0319824218752	-261.4094848632813	762.0765991210939	-853.362243652344	-231.4510803222657	768.600036621094	-864.7943115234377	-274.9257507324219	678.6284790039064	-856.637634277344	-258.0417480468751	562.4246826171876	-848.195007324219	-255.8299102783204	529.0814819335939	-963.9489746093752	-254.4090118408204	393.9205322265626	-833.6755371093752	-347.5729370117188	339.0797424316407	-799.9912109375002	-302.6689147949219	326.4903259277344	-804.8486938476565	-292.2042846679688	271.9697265625001	-825.7791137695315	-366.2254943847657	169.1963500976563	-788.3551025390627	-343.7492675781251	169.1497650146485	-871.8748779296877	-435.9734497070314	136.1171112060547	-828.0769653320315	-229.9576263427735	82.08800506591798	-856.7239379882815	-217.2801513671876	93.60261535644533	-806.5914306640627	-258.9064331054688	86.54573822021486	-753.7657470703126	-454.9478454589845	1106.68408203125	-1081.358520507813	-4216.771972656251	853.105895996094	-3944.771240234376	nan	nan	nan	
1039	5.19	-220.9404754638672	1793.142822265625	-1126.137817382813	-388.012908935547	1701.65478515625	-1198.481079101563	-365.6306762695313	1706.761596679688	-1047.005615234375	-406.3594665527345	1565.689453125	-1122.267822265625	-428.3126525878907	1248.82958984375	-1073.93212890625	-245.5350341796876	1505.123779296875	-1140.061401367188	-361.4295959472657	1543.315063476563	-1303.438720703125	-461.068328857422	1356.11962890625	-1342.432739257813	-433.8530578613282	1315.988525390625	-1335.465454101563	-491.0505371093751	1293.201171875	-1337.20361328125	-507.3773193359376	1249.44482421875	-1324.617065429688	-500.0819396972657	1232.493774414063	-1239.059326171875	-515.0736694335939	972.6753540039065	-1276.76220703125	-573.9759521484376	995.218200683594	-1319.236450195313	-538.7102050781251	898.1223754882815	-1279.170776367188	-300.6873779296876	1573.118530273438	-963.6279907226565	-419.9158020019532	1408.7685546875	-849.6453857421877	-376.4796447753907	1383.487060546875	-839.7692871093752	-417.3384704589845	1342.623657226563	-823.7362060546877	-424.7856750488282	1300.734497070313	-813.312194824219	-450.8159484863282	1272.368530273438	-894.3440551757815	-436.6509094238282	1031.67431640625	-806.059509277344	-483.8884277343751	1058.577758789063	-750.5035400390626	-469.2144775390626	954.3868408203127	-799.0506591796877	-271.1535034179688	1050.447875976563	-1181.406982421875	-251.7538757324219	1067.876342773438	-957.812438964844	-437.349822998047	1134.873291015625	-1058.4072265625	-449.5618286132814	1109.69189453125	-1026.845458984375	-382.7761840820313	838.3015136718752	-1217.498291015625	-342.1193237304688	764.2335815429689	-1210.962280273438	-294.7066955566407	771.3430175781252	-1207.507202148438	-366.0777282714844	711.3121337890626	-1194.160278320313	-334.7904968261719	533.5624389648439	-1165.297973632813	-319.4922790527344	525.2855224609376	-1046.218872070313	-305.6846618652344	346.4873352050782	-1093.9228515625	-357.1985168457032	299.7621459960938	-1150.082763671875	-318.1333007812501	297.1885070800782	-1125.213012695313	-321.4144592285157	223.3381652832032	-1085.14794921875	-384.3853149414064	128.3405456542969	-1111.73828125	-343.9955139160157	139.69677734375	-1033.018432617188	-447.7047119140626	115.9369201660157	-1064.909790039063	-241.2235412597657	66.00371551513673	-1043.000854492188	-235.6900939941407	57.82302093505861	-1088.017333984375	-285.0500183105469	40.23427963256837	-1139.082641601563	-310.3157653808594	807.2205810546877	-850.928405761719	-262.1018676757813	761.8535156250001	-853.3809814453127	-232.1573333740235	768.4232177734377	-864.420104980469	-276.0133972167969	678.3542480468751	-856.3593750000002	-258.9084472656251	562.2599487304689	-847.8442993164065	-256.7060241699219	528.7738037109376	-963.501159667969	-255.4655456542969	393.8469848632814	-833.261901855469	-348.8921203613282	339.0059204101563	-799.5034179687502	-303.8294982910157	326.2937927246094	-804.3424072265627	-293.0581054687501	271.7365417480469	-824.9841918945315	-367.0889587402344	168.959716796875	-787.7598876953127	-345.4909362792969	169.0772857666016	-871.2567138671877	-436.8572082519532	135.9451446533203	-827.4605102539065	-231.3426055908204	81.74108123779298	-855.493347167969	-218.2624969482422	93.36514282226564	-805.9248046875002	-259.6661376953126	86.37327575683595	-753.3118286132814	-455.0287170410157	1106.63916015625	-1081.31640625	-4216.729492187501	853.1294555664065	-3944.661621093751	nan	nan	nan	
